<?xml version="1.0" encoding="UTF-8" standalone="no" ?>
<!DOCTYPE svg PUBLIC "-//W3C//DTD SVG 1.1//EN" "http://www.w3.org/Graphics/SVG/1.1/DTD/svg11.dtd">
<svg xmlns="http://www.w3.org/2000/svg" xmlns:xlink="http://www.w3.org/1999/xlink" version="1.1" width="500" height="500" viewBox="0 0 500 500" xml:space="preserve">
<desc>Created with Fabric.js 4.6.0</desc>
<defs>
</defs>
<g transform="matrix(1 0 0 1 329.01 104.54)" id="w1XSfSQqpUMvCIY0ykk6c"  >
<path style="stroke: rgb(0,0,0); stroke-width: 1; stroke-dasharray: none; stroke-linecap: butt; stroke-dashoffset: 0; stroke-linejoin: miter; stroke-miterlimit: 4; fill: rgb(255,255,255); fill-opacity: 0; fill-rule: nonzero; opacity: 1;" vector-effect="non-scaling-stroke"  transform=" translate(0, 0)" d="M 0 0" stroke-linecap="round" />
</g>
<g transform="matrix(1.02 0 0 1.02 102.79 335.36)" id="UwW8ybGH1Qv1MzIUy_u0h"  >
<path style="stroke: rgb(111,88,201); stroke-width: 10; stroke-dasharray: none; stroke-linecap: butt; stroke-dashoffset: 0; stroke-linejoin: miter; stroke-miterlimit: 4; fill: rgb(255,255,255); fill-opacity: 0; fill-rule: nonzero; opacity: 1;" vector-effect="non-scaling-stroke"  transform=" translate(0, 0)" d="M 105.27527 -146.55215 C 60.11196 -97.27353000000002 9.04025 25.384589999999974 -15.11654999999999 62.46159 C -39.27334999999999 99.5386 -71.23961 128.72395 -105.27526999999999 146.55214999999998" stroke-linecap="round" />
</g>
<g transform="matrix(1.02 0 0 1.02 240.84 219.58)" id="TYdDyVpUfA_oJOvcPYyw3"  >
<path style="stroke: rgb(153,148,219); stroke-width: 10; stroke-dasharray: none; stroke-linecap: butt; stroke-dashoffset: 0; stroke-linejoin: miter; stroke-miterlimit: 4; fill: none; fill-rule: nonzero; opacity: 1;" vector-effect="non-scaling-stroke"  transform=" translate(0, 0)" d="M 242.89596 -216.97731 C 242.89596 -216.97731 242.16246 -209.31922999999998 237.1742 -196.34024 C 223.62516000000002 -161.08691 178.68597 -86.5777 31.793860000000024 -19.647019999999998 C -169.17858999999999 71.9251 -242.89595999999997 216.97731 -242.89595999999997 216.97731" stroke-linecap="round" />
</g>
<g transform="matrix(1.02 0 0 1.02 357.63 114.94)" id="EaAa5gM8Y-vFB5Ep7sIPo"  >
<path style="stroke: rgb(111,88,201); stroke-width: 10; stroke-dasharray: none; stroke-linecap: butt; stroke-dashoffset: 0; stroke-linejoin: miter; stroke-miterlimit: 4; fill: rgb(255,255,255); fill-opacity: 0; fill-rule: nonzero; opacity: 1;" vector-effect="non-scaling-stroke"  transform=" translate(0, 0)" d="M 144.79223 -69.90889 C 144.79223 -69.90889 -61.587020000000024 -20.87804 -144.79224000000002 69.90888" stroke-linecap="round" />
</g>
</svg>